<svg viewBox="0 0 248 438.4" xmlns="http://www.w3.org/2000/svg"><path stroke="#000" fill="none" d="M-3.738 156.257c-.789.901-1.436 1.154-3.463 1.38-1.746.225-1.914.31-2.984 1.52-.704.816-1.352 1.295-1.746 1.295-.929 0-2.308 1.633-1.914 2.252.084.14 1.042.788 2.111 1.408l1.971 1.154v1.83c0 1.154-.169 2.055-.422 2.477-.535.788-2.816 2.309-3.913 2.59l-.817.197.197 2.337c.225 2.843.085 3.21-2.477 5.743-1.408 1.351-1.858 1.999-1.858 2.59 0 .648.169.816 1.07 1.042.563.14 2.083.366 3.35.478 1.97.141 2.449.113 3.096-.31 1.69-1.097 3.745-1.041 3.745.113 0 .394-.535.704-2.112 1.295-1.154.423-2.646 1.154-3.294 1.633-.675.507-1.717 1.098-2.336 1.351-1.098.45-1.126.507-1.183 1.83 0 .76-.281 1.943-.59 2.647-.339.675-.536 1.323-.451 1.38.056.084.844-.564 1.745-1.409.873-.844 2.337-2.11 3.238-2.787s1.886-1.52 2.167-1.886c.648-.844 4.477-2.618 5.603-2.618.647 0 1.041-.253 1.633-.985.478-.62 1.182-1.098 1.83-1.267 1.182-.338 3.35-2.59 4.25-4.448.48-.957.733-1.183 1.352-1.183.394 0 1.126-.14 1.576-.281.676-.254 1.155-.197 2.253.225l1.435.535 1.183-.788c1.041-.704 1.492-.817 3.068-.817s2.168.141 3.942 1.042c2.224 1.126 2.9 1.21 6.306.788l1.633-.225 1.182 1.323c.676.704 1.323 1.295 1.464 1.295s.845.591 1.577 1.295l1.323 1.295 3.153.254c3.829.31 4.589.675.985.45-1.605-.085-2.984 0-3.8.225-.704.197-2.506.535-4.026.788-2 .31-3.069.62-3.885 1.155-1.323.9-1.38 1.351-.254 2.14.676.478 1.098.562 1.943.422.957-.17 1.154-.085 1.436.394.253.478.225.59-.141.59-.225 0-.422.198-.422.451 0 .423-.226.45-1.746.254-3.181-.366-6.193-.535-10.698-.563-4.476 0-5.518-.254-3.997-.958 1.238-.563.844-1.323-.958-1.83-.9-.253-1.914-.45-2.224-.45-.59 0-.59.028-.14 1.183.225.675.619 1.435.844 1.689.676.816-.507 1.154-3.519 1.013-2.534-.14-2.703-.197-3.632-1.098-.534-.507-.957-1.098-.957-1.323 0-.338-.281-.366-1.464-.225-.788.112-1.66.31-1.942.478-.648.338-2.393.338-3.604-.028-1.07-.31-1.717.028-3.997 2.14-.704.647-1.549 1.267-1.887 1.351-.45.14-.731.648-1.07 1.858-.45 1.605-.478 1.633-1.66 1.802-.986.169-1.267.338-1.492.957-.592 1.52-.901 3.04-.901 4.56 0 .845-.254 2.366-.563 3.351-.676 2.111-.507 2.506.9 2.027 1.549-.563 7.01-1.436 9.01-1.436 1.576 0 1.942.085 2.167.535.253.45.056.732-1.21 1.83-1.098.929-1.774 1.295-2.393 1.295-.732 0-.873.113-.873.704 0 .422.253.873.704 1.154.394.253.703.704.703.985s.366.93.817 1.436c1.126 1.295 1.295 1.999.591 2.618-1.098.986-.394 1.83 1.52 1.83 1.239 0 1.69.93.76 1.605-.788.535-1.717 1.548-1.717 1.83 0 .338-1.914.281-2.111-.056-.394-.648-.704-.197-.704.957 0 1.013.14 1.38.704 1.802.45.365.704.844.704 1.35 0 1.183.225 1.38 2.392 2.394l1.971.9-1.407.254c-1.633.253-3.379.056-4.28-.507-.844-.535-.872-.535-.985.507l-.084.93-.62-1.183c-.535-.958-.591-1.295-.338-2 .254-.76.17-1.04-.703-2.42-.845-1.352-1.127-1.577-1.858-1.577h-.845v1.97c0 1.268.169 2.31.45 2.872.535 1.014.197 1.408-1.098 1.295-.619-.056-.9.113-1.266.676-.423.704-.423.788.084 1.323.282.338.845.591 1.239.591.45 0 1.126.423 1.886 1.155l1.182 1.182.76-.76c1.07-1.07 2.506-1.014 3.097.113.225.45.423 1.21.423 1.689 0 .816.084.872.816.816.507-.056 1.21.17 1.942.648.62.422 1.464.844 1.859.957.844.197 1.126.507 1.492 1.66.45 1.296-.254 2.253-2.224 3.013-.901.366-1.633.732-1.633.817 0 .112.31.281.675.366.901.225 1.577 2.224 1.577 4.701 0 1.52.084 1.914.507 2.083.338.113.703-.084 1.21-.675.817-1.014 2.168-1.267 1.661-.338-.45.873-.338 1.436.282 1.436.366 0 .506.14.394.422-.14.31.084.478.704.591.844.169.872.253.816 1.408-.084 1.126-.169 1.267-.985 1.548-.676.225-1.154.197-1.886-.056-.845-.31-1.042-.282-1.802.253-.788.591-.817.676-.563 1.577.253.844.366.929.816.647.366-.225.76-.197 1.577.056.732.254 1.942.31 3.885.198 7.573-.479 10.05-.479 9.938-.113-.085.197-.45.394-.873.45-.394.057-.873.282-1.042.507-.197.225-.704.394-1.154.394-.676 0-.845.17-1.126 1.126l-.338 1.126-1.717.057c-.957.028-2.337.084-3.125.084-.873 0-2.168.31-3.463.817-1.858.76-2.027.872-1.577 1.21.676.479 3.942.479 4.251 0 .113-.197.592-.591 1.042-.873.648-.422.93-.45 1.492-.197.873.395 2.393.395 3.322-.028.394-.169.788-.225.901-.112.338.31-.338 1.126-1.07 1.295-.563.14-.59.197-.169.366.592.225.648 1.041.057 1.041-.338 0-.986.789-.986 1.239 0 .563 1.352 0 2.478-1.042.732-.675 1.689-1.351 2.14-1.548.562-.253.76-.507.647-.873-.113-.45.084-.563 1.464-.704 2.449-.281 3.322 0 3.688 1.126.253.704.62 1.07 1.351 1.408.591.225 1.239.704 1.52 1.014.394.535.535.563.901.253.254-.197.45-.535.45-.704s.198-.62.451-.957l.422-.648 1.155.901c.929.76 1.041.958.675 1.155-.62.337-.563 1.238.085 1.689.422.31.535.732.535 1.999l-.029 1.632 1.661 1.52c1.183 1.07 1.83 1.465 2.225 1.38.365-.084.788.085 1.097.422.395.423.873.592 1.718.592.9 0 1.295.169 1.773.703.76.873 1.267.873 2.421 0 .507-.394 1.24-.703 1.661-.703.901 0 3.04-.901 3.52-1.492.337-.395.506-.395 1.492-.057.619.225 1.492.62 1.97.901 1.014.591 1.21.394 1.661-1.745.17-.76.563-1.83.873-2.393.366-.592.62-1.633.704-2.675.197-3.322.394-4.054 1.267-4.673.788-.563.9-.563 1.97-.14.76.309 2 .45 3.885.45 2.168 0 3.097.14 4.082.563.704.281 1.295.675 1.295.816s.423.366.93.45c.478.113 1.35.564 1.886.986s2.562 1.576 4.504 2.534c3.8 1.886 4.054 2.111 6.334 5.49 1.887 2.843 3.322 4.363 4.082 4.363.31 0 .93.253 1.38.591 1.239.901 2.843 1.014 4.392.253 1.098-.534 1.435-.59 2.027-.31.703.339 1.182.085 1.21-.619 0-.112 1.633-.197 3.632-.197 2.871 0 3.688-.084 3.97-.422.394-.479 1.154-.563 1.576-.14.197.196.732-.198 1.66-1.127 1.55-1.548 1.943-1.689 2.422-.788l.31.591.478-.732c.226-.422.648-.76.93-.76.393 0 .45-.169.337-.816-.14-.704.085-1.042 2.196-3.125 1.267-1.267 2.843-2.618 3.463-3.013s1.436-1.013 1.83-1.379c.563-.507 1.154-.676 2.871-.845 2.055-.169 2.196-.14 3.04.563.48.395 1.042.732 1.211.732.197 0 .957.507 1.718 1.126.732.62 1.548 1.127 1.773 1.127.254 0 .873.253 1.38.59.732.451 1.07.508 1.492.282.31-.169 1.098-.31 1.773-.31s1.352-.112 1.52-.225c.395-.253.958-1.914.958-2.759 0-.534.14-.675.732-.675.506 0 1.267-.479 2.42-1.549.902-.844 1.774-1.548 1.943-1.548.62 0 2.478 1.52 2.787 2.28.197.479.31 1.492.226 2.365-.113 1.295-.282 1.746-1.07 2.534-.507.507-1.267 1.098-1.661 1.267-.422.169-1.295.929-1.943 1.689l-1.21 1.408 1.126 2.674c1.239 2.843 1.323 3.463.844 4.899-.45 1.295.226 1.914 2.28 2.055 1.493.084 1.521.084 1.774-.817.17-.506.507-.985.789-1.07.253-.084.816-.422 1.21-.731.676-.507.732-.76.732-2.534v-1.943h1.239c.704 0 1.576.113 1.97.282.592.225.845.14 1.549-.563l.845-.845-.817-.422c-1.38-.704-2.055-1.97-1.858-3.322.113-.648.282-1.943.422-2.9.226-1.52.592-2.562 1.38-3.716.197-.31.478-.281 1.351.197.591.338 1.408.591 1.802.591 1.548 0 2.027.31 1.914 1.183-.197 1.182.788 1.83 2.055 1.38.507-.17 1.887-.31 3.069-.31 1.774 0 2.252-.085 2.646-.535.563-.62 2.703-1.436 3.8-1.436.395 0 1.38-.394 2.14-.845 3.07-1.801 4.195-2.252 5.715-2.252 1.858 0 3.998 1.014 5.462 2.646l1.07 1.155 6.137-.028c7.657-.057 9.684-.338 13.063-1.83 1.435-.648 3.378-1.464 4.307-1.858s2.14-1.127 2.675-1.661c.534-.507 1.435-1.127 1.97-1.352.563-.225 1.239-.675 1.52-.985.338-.366.873-.591 1.464-.591.507 0 1.52-.141 2.28-.31 1.127-.253 1.915-.225 4.083.14 3.322.564 5.01.564 6.278.057.535-.225 1.576-.507 2.308-.591 2.478-.338 5.659-1.52 6.335-2.393.366-.422 1.07-.985 1.576-1.239.873-.45.985-.45 1.83.028.704.423.929.76 1.042 1.661.112.817.253 1.098.647 1.07.254 0 .873-.028 1.351-.056 1.098-.056 2.534-1.549 3.07-3.153.196-.62.675-1.323 1.069-1.577.62-.422.788-.422 1.914.028 1.183.45 1.323.45 2.618-.028 1.098-.394 1.52-.422 2.28-.14.508.168 1.352.31 1.887.31.507 0 1.436.309 2.055.703.591.394 1.295.62 1.548.535.226-.113.62-.028.845.169.282.225 1.126.31 2.562.225 1.97-.084 2.196-.169 2.787-.9.62-.79.732-.817 2.309-.62 1.154.112 1.773.338 2.14.76.534.647.647 1.802.196 2.083-.535.338-.281 1.717.422 2.393.564.535.845.62 1.211.394.253-.169.507-.563.563-.9.056-.367.479-.733 1.267-1.042.62-.254 1.576-.845 2.083-1.295.591-.507 1.267-.817 1.802-.817s.9-.169 1.013-.506c.085-.254.366-.704.592-.958.366-.45.337-.506-.31-.76-.422-.169-1.07-.844-1.52-1.492-.423-.675-.986-1.464-1.267-1.802-.366-.422-.563-1.295-.732-3.096-.197-2.45-.225-2.506-.957-2.59-.45-.057-.845-.31-.93-.648-.225-.704-1.548-1.38-2.758-1.38-.873 0-.986-.084-1.098-.9-.085-.479.028-1.21.225-1.605.225-.394.394-.873.394-1.042s.31-.59.704-.957.704-.985.704-1.38c0-.365.253-1.238.591-1.914.76-1.576.62-2.167-.507-2.28-.478-.056-1.041-.253-1.21-.478-.338-.423-.817-3.491-1.014-6.898-.14-1.858-.225-2.168-.76-2.393-.957-.422-1.351-1.492-1.154-3.125.225-1.83 0-2.477-.873-2.871-.507-.225-.704-.535-.704-1.126 0-.45-.14-1.24-.31-1.746-.253-.732-.253-.957.057-1.154.507-.31 1.858-.31 2.477 0 .338.197.789.056 1.661-.479 1.155-.732 1.183-.788 1.183-2.308.028-2.45.394-3.604 1.52-4.645.563-.507 1.013-1.042 1.013-1.21 0-.142-.816-1.155-1.801-2.197l-1.802-1.942-3.463-.028c-4.73-.029-8.108-.93-7.291-1.943.225-.253.225-.422 0-.563-.394-.253-1.69-3.153-1.69-3.772 0-.254-.197-.732-.422-1.07-.366-.535-.338-.676.394-1.69.45-.619 1.042-1.83 1.324-2.702.45-1.464.45-1.633.028-2.787-.282-.676-.479-1.492-.479-1.802 0-.844-.957-1.97-2.421-2.815-.873-.507-1.239-.9-1.239-1.351 0-.338-.197-.901-.45-1.24-.338-.506-.704-.618-1.943-.618-1.38 0-1.576-.085-1.914-.789-.225-.422-.366-.9-.282-1.07.057-.14-.422-.506-1.041-.788-.676-.281-1.52-1.013-2.055-1.745-.648-.901-1.042-1.21-1.464-1.126-.423.112-.676-.085-.986-.76-.394-.817-.563-.901-1.858-.986s-1.52 0-2.055.676c-.338.422-.591.957-.591 1.21 0 .873-.422 1.211-1.154.901-.366-.169-2.309-.422-4.308-.563l-3.631-.253-.704.816c-.62.76-.732.789-1.182.394-.254-.225-.789-.422-1.21-.422-.395 0-1.07-.14-1.521-.31-.76-.281-.873-.225-2.618 1.661-1.436 1.549-2.055 2.027-2.9 2.168-.563.113-1.661.704-2.421 1.295-.873.704-1.661 1.098-2.168 1.098a5.28 5.28 0 0 0-3.744 1.52c-1.07 1.042-2.196 1.577-3.238 1.577-.366 0-.816.197-1.041.45-.197.254-1.126.817-2.055 1.295-1.633.845-1.746.845-2.506.395-.45-.254-1.436-.45-2.252-.45-1.098 0-2.168-.31-4.336-1.24-2.505-1.098-2.984-1.21-3.941-.985-.591.14-1.661.253-2.365.253-.732 0-3.097.592-5.63 1.38-2.393.76-4.899 1.464-5.546 1.576-1.324.226-4.702-.197-7.573-.9-1.69-.423-1.746-.45-1.915-1.52-.197-1.07-.197-1.099-1.407-1.099-1.014 0-1.267.113-1.408.592-.169.506-.338.563-1.21.394-.564-.113-1.38-.366-1.802-.591-.45-.226-1.746-.564-2.928-.76-2.055-.31-2.112-.367-2.787-1.52-1.042-1.746-2.055-2.337-4.364-2.535l-1.999-.168-1.098 1.07c-1.041 1.013-1.098 1.041-2.111.703-.76-.253-1.154-.591-1.436-1.267-.281-.732-.62-.985-1.436-1.182l-1.07-.254-.196-2.026c-.113-1.098-.423-2.337-.676-2.703-.648-1.014-2.506-1.239-4.955-.591-2.534.647-4.645.45-6.39-.62-1.52-.957-2.985-2.956-3.21-4.504-.225-1.323-1.267-2.984-1.97-3.125-.282-.056-.76.197-1.07.591-1.295 1.661-2 1.858-6.841 1.858-3.294 0-4.702-.084-5.434-.394-.563-.225-1.576-.422-2.308-.422s-2.76-.197-4.533-.45-3.66-.395-4.195-.31c-2.167.281-4.73 1.154-5.658 1.886-.788.62-1.605.873-3.744 1.21-2.056.31-3.097.648-4.083 1.267-.732.45-1.689.93-2.14 1.014-.45.112-1.379.676-2.11 1.267-.704.59-1.83 1.21-2.478 1.407-.676.17-1.999.958-2.956 1.746-1.69 1.323-2.506 1.773-5.405 3.04-1.07.479-1.295.732-1.718 1.97-.394 1.211-.675 1.55-1.632 2.028-1.042.535-1.52.591-5.096.478-3.97-.112-3.97-.112-5.968-1.154-2.562-1.38-3.745-1.576-4.814-.844-.423.31-1.324.647-1.971.76-1.323.197-4.87-.225-6.954-.845-2.646-.76-6.334-1.267-6.897-.957-.788.394-.873.366-.873-.422 0-.817-.084-.845-.872-.366-.507.338-1.127.084-5.18-2-3.886-1.998-4.927-2.674-6.588-4.278-1.126-1.098-2.055-2.252-2.168-2.703a11.917 11.917 0 0 0-.704-1.83c-.647-1.267-.675-2.449-.112-2.646.703-.282.478-.93-.479-1.52-1.239-.732-2.365-.732-2.787.028-.197.394-.479.535-.873.422-.338-.056-1.07.113-1.633.394l-1.041.535-.93-1.323c-1.463-2.168-3.828-3.716-4.363-2.872-.084.141-.535.282-.985.282s-.901-.14-.986-.282c-.281-.45-.844-.337-1.435.31z" stroke-width="5"/></svg>